# xmcd CD database file
#
# Track frame offsets:
#	151
#	33885
#	60834
#	88173
#	138848
#	167149
#	199563
#	223189
#	243407
#
# Disc length: 3509 seconds
#
# Revision: 0
# Processed by: cddbd v1.4PL0 Copyright (c) Steve Scherf et al.
# Submitted via: CDex 1.50
#
DISCID=740db309
DTITLE=Marvin "Doc" Holladay - Wings for the Spirit
DYEAR=1900
DGENRE=Jazz
TTITLE0=Bahji
TTITLE1=Tahirih
TTITLE2=A visit with the Master
TTITLE3=The luminous continent - Suite
TTITLE4=Carmel
TTITLE5=Shiraz
TTITLE6=Meditation for the martyrs
TTITLE7=Fortress for well-being
TTITLE8=At the Threshold
EXTD=
EXTT0=
EXTT1=
EXTT2=
EXTT3=
EXTT4=
EXTT5=
EXTT6=
EXTT7=
EXTT8=
PLAYORDER=
